<?xml version="1.0" encoding="utf-8"?>
<!-- Generator: Adobe Illustrator 21.1.0, SVG Export Plug-In . SVG Version: 6.00 Build 0)  -->
<svg version="1.1" id="Layer_1" xmlns="http://www.w3.org/2000/svg" xmlns:xlink="http://www.w3.org/1999/xlink" x="0px" y="0px"
	 viewBox="0 0 48 48" style="enable-background:new 0 0 48 48;" xml:space="preserve">
<style type="text/css">
	.st0{fill:#873CD9;}
	.st1{fill:#FFFFFF;}
</style>
<circle class="st0" cx="24" cy="24" r="24"/>
<path class="st1" d="M13.904,29.463l8.033-2.783l0.098,4.907l-3.027,2.442c-0.049,0.049-0.098,0.122-0.098,0.195v1.636
	c0,0.098,0.098,0.171,0.22,0.146l4.785-1.904c0.073-0.024,0.122-0.024,0.195,0l4.761,1.904c0.098,0.049,0.22-0.024,0.22-0.146
	v-1.636c0-0.073-0.024-0.146-0.098-0.195l-3.003-2.417l0.098-4.907l8.008,2.759c0.098,0.024,0.195-0.049,0.195-0.146v-2.539
	c0-0.073-0.024-0.146-0.098-0.195l-7.984-6.201l0.098-5.908c0.024-1.27-0.928-2.442-2.197-2.49
	c-1.343-0.073-2.466,1.025-2.417,2.368l0.098,6.031l-7.984,6.201c-0.049,0.049-0.098,0.122-0.098,0.195v2.539
	C13.709,29.414,13.807,29.488,13.904,29.463z"/>
</svg>
